<?xml version="1.0" encoding="UTF-8"?>
<svg version="1.1" xmlns="http://www.w3.org/2000/svg" width="512" height="512">
<path d="M0 0 C1.01790619 0.00215515 2.03581238 0.0043103 3.08456421 0.00653076 C17.69363523 0.05620146 32.02575853 0.30709809 46.375 3.3125 C47.34985352 3.51117676 48.32470703 3.70985352 49.32910156 3.91455078 C97.7109774 14.03517194 141.69928269 35.9516877 177.375 70.3125 C178.3640332 71.26068604 178.3640332 71.26068604 179.37304688 72.22802734 C188.86130305 81.37247479 197.6012044 90.66984009 205.375 101.3125 C206.23306152 102.46355017 207.09113451 103.61459177 207.94921875 104.765625 C213.98736829 112.95680614 219.34595521 121.47054105 224.375 130.3125 C224.73948242 130.94430176 225.10396484 131.57610352 225.47949219 132.22705078 C247.08534998 169.97532572 256.85198095 212.74189997 256.6875 255.9375 C256.68534485 256.95540619 256.6831897 257.97331238 256.68096924 259.02206421 C256.63129854 273.63113523 256.38040191 287.96325853 253.375 302.3125 C253.07698486 303.77478027 253.07698486 303.77478027 252.77294922 305.26660156 C242.65232806 353.6484774 220.7358123 397.63678269 186.375 433.3125 C185.74287598 433.97185547 185.11075195 434.63121094 184.45947266 435.31054688 C175.31502521 444.79880305 166.01765991 453.5387044 155.375 461.3125 C154.22394983 462.17056152 153.07290823 463.02863451 151.921875 463.88671875 C143.73224019 469.92427396 135.22961724 475.30707302 126.375 480.3125 C125.66778809 480.7146875 124.96057617 481.116875 124.23193359 481.53125 C101.09654164 494.5566741 75.92537591 503.30551461 49.9375 508.625 C49.21860596 508.77235596 48.49971191 508.91971191 47.7590332 509.0715332 C33.08339502 511.86090125 18.55831162 512.66142619 3.64770508 512.62817383 C0.70811513 512.6250221 -2.2304558 512.64854926 -5.16992188 512.67382812 C-18.54306192 512.71848737 -31.43916711 511.51301542 -44.625 509.3125 C-46.33055054 509.03031616 -46.33055054 509.03031616 -48.07055664 508.74243164 C-91.33802759 500.97044532 -132.38793216 480.98345309 -165.625 452.3125 C-166.37007813 451.67828125 -167.11515625 451.0440625 -167.8828125 450.390625 C-181.38779833 438.57948485 -194.05918743 425.82889772 -204.625 411.3125 C-205.48149066 410.16255169 -206.33826433 409.01281411 -207.1953125 407.86328125 C-213.23534209 399.67315742 -218.61867614 391.16870382 -223.625 382.3125 C-224.0271875 381.60528809 -224.429375 380.89807617 -224.84375 380.16943359 C-237.8691741 357.03404164 -246.61801461 331.86287591 -251.9375 305.875 C-252.08485596 305.15610596 -252.23221191 304.43721191 -252.3840332 303.6965332 C-255.35789088 288.05024391 -255.99800362 272.57681954 -255.9375 256.6875 C-255.93534485 255.66959381 -255.9331897 254.65168762 -255.93096924 253.60293579 C-255.88129854 238.99386477 -255.63040191 224.66174147 -252.625 210.3125 C-252.42632324 209.33764648 -252.22764648 208.36279297 -252.02294922 207.35839844 C-241.90232806 158.9765226 -219.9858123 114.98821731 -185.625 79.3125 C-184.99287598 78.65314453 -184.36075195 77.99378906 -183.70947266 77.31445312 C-174.56502521 67.82619695 -165.26765991 59.0862956 -154.625 51.3125 C-153.47394983 50.45443848 -152.32290823 49.59636549 -151.171875 48.73828125 C-142.98224019 42.70072604 -134.47961724 37.31792698 -125.625 32.3125 C-124.91778809 31.9103125 -124.21057617 31.508125 -123.48193359 31.09375 C-100.34654164 18.0683259 -75.17537591 9.31948539 -49.1875 4 C-48.46860596 3.85264404 -47.74971191 3.70528809 -47.0090332 3.5534668 C-31.36274391 0.57960912 -15.88931954 -0.06050362 0 0 Z " fill="#66BB6A" transform="translate(255.625,-0.3125)"/>
<path d="M0 0 C0 7.26 0 14.52 0 22 C-2.743125 22.2475 -5.48625 22.495 -8.3125 22.75 C-18.05750402 23.78285635 -27.27186267 24.9075149 -33.87890625 32.828125 C-37.28493389 39.42656182 -37.38465767 46.48924225 -37.375 53.75 C-37.37628906 54.78423096 -37.37757813 55.81846191 -37.37890625 56.8840332 C-37.2709494 65.11512963 -36.28262782 73.06511752 -35 81.1875 C-29.50479952 116.17200999 -29.50479952 116.17200999 -39.046875 129.95703125 C-40.45627393 131.8637181 -41.90150456 133.74474744 -43.390625 135.58984375 C-45.37021476 138.07140811 -45.37021476 138.07140811 -45 142 C-43.38322549 144.57644126 -43.38322549 144.57644126 -41.25 147.1875 C-34.96295835 155.13944342 -32.29865576 162.0861316 -32.5 172.1875 C-32.50773437 173.16509277 -32.51546875 174.14268555 -32.5234375 175.14990234 C-32.74131319 184.86503979 -34.16330067 194.37592486 -35.56079102 203.97827148 C-36.63762744 211.59055992 -37.40935075 219.05821865 -37.4375 226.75 C-37.45200195 227.95293701 -37.45200195 227.95293701 -37.46679688 229.18017578 C-37.36256932 236.41326156 -35.69652735 243.1371101 -32 249.375 C-22.95097513 257.29289676 -11.38269324 256.65766336 0 257 C0 264.59 0 272.18 0 280 C-19.0202029 279.6433712 -35.12680102 278.81708288 -49.76171875 265.3828125 C-60.05173283 254.54849037 -61.37631507 239.94541639 -61.3125 225.75 C-61.31048584 224.53159424 -61.30847168 223.31318848 -61.30639648 222.05786133 C-61.18436732 210.85967649 -59.84980663 200.02524667 -58 189 C-55.79512388 175.98254339 -55.79512388 175.98254339 -58.19921875 163.2890625 C-62.19480774 157.87438523 -67.22930177 153.81676413 -73.99072266 152.65917969 C-76.26259571 152.35986704 -78.53284193 152.1083972 -80.8125 151.875 C-83.514375 151.58625 -86.21625 151.2975 -89 151 C-89 143.74 -89 136.48 -89 129 C-86.36 128.7525 -83.72 128.505 -81 128.25 C-73.05599521 127.3730059 -66.68995758 126.296352 -61.125 120 C-52.99358542 108.52035588 -57.69224202 92.74540277 -59.61083984 79.68164062 C-62.40680333 60.41510179 -65.69192809 37.11383257 -54 20 C-45.59836285 8.80382689 -35.45675733 3.97521982 -22 1 C-14.6414919 -0.0182986 -7.42674559 0 0 0 Z " fill="#FDFEFC" transform="translate(224,116)"/>
<path d="M0 0 C16.30192853 -0.61906058 34.10340856 1.66596548 47.1875 12.26953125 C54.86667233 19.60115483 58.92046754 27.73523539 60.6875 38.125 C60.81705078 38.7953125 60.94660156 39.465625 61.08007812 40.15625 C63.27082081 52.62841468 61.61688986 65.06488111 60.0625 77.5 C59.87759554 79.03637909 59.69334729 80.57283729 59.50976562 82.109375 C59.33132996 83.58340618 59.15231495 85.05736738 58.97265625 86.53125 C58.8491555 87.54693054 58.8491555 87.54693054 58.72315979 88.58312988 C58.28329824 92.09272067 57.70646918 95.53569285 57 99 C56.08188746 109.82042182 56.08188746 109.82042182 60.44921875 119.38671875 C68.56107447 127.82550064 77.73501297 128.30319668 89 129 C89 136.26 89 143.52 89 151 C87.040625 151.103125 85.08125 151.20625 83.0625 151.3125 C73.74869907 152.06084014 66.39424583 153.8106148 60 161 C54.66748451 168.17646944 56.44403854 178.48023609 57.64453125 186.921875 C58.13554448 190.09949414 58.68162752 193.26442428 59.24609375 196.4296875 C60.8382023 205.71218687 61.23961889 214.92630563 61.29516602 224.33984375 C61.30669241 225.69314016 61.3271553 227.04639087 61.35668945 228.39941406 C61.65946607 242.3575851 58.8707921 255.49235958 49.1171875 266.03515625 C35.82265355 278.31304936 17.33438666 280.19698167 0 280 C0 272.74 0 265.48 0 258 C9.9375 256.75 9.9375 256.75 13.01147461 256.38574219 C18.57874971 255.63587534 23.19129843 254.3254147 28.22485352 251.81347656 C30 251 30 251 32 251 C35.7162896 242.42394708 37.53232412 234.46675598 37.4375 225.125 C37.43427734 224.09906738 37.43105469 223.07313477 37.42773438 222.01611328 C37.28539232 213.84739706 36.26876457 205.93668805 35 197.875 C31.96483889 178.31686189 29.70757414 162.28858218 41.73046875 145.59765625 C43.3125 143.625 43.3125 143.625 46 141 C46.66 141 47.32 141 48 141 C48 140.34 48 139.68 48 139 C47.4121875 138.76152344 46.824375 138.52304688 46.21875 138.27734375 C39.9143525 134.64787547 35.81389962 125.97380097 33.66015625 119.2421875 C31.16823629 107.00376401 33.224282 94.63159142 35 82.4375 C36.43861608 72.49797069 37.43041949 62.73680993 37.5 52.6875 C37.51804687 51.63941162 37.53609375 50.59132324 37.5546875 49.51147461 C37.49192921 41.47906779 35.84871856 35.19612326 30.4375 29.125 C21.85526806 22.94920034 10.07668733 23.43062766 0 23 C0 15.41 0 7.82 0 0 Z " fill="#FDFEFC" transform="translate(288,116)"/>
</svg>
